{"title":"Star.Wars.Rebels.S02E07.HDTV.x264-UAV","uid":12843410,"size":181179614,"categoryP":"video","categoryS":"tv_shows","magnet":"?xt=urn:btih:db21c92f9ed609bc3c5403477a014e9bd8969ed8&amp;dn=Star.Wars.Rebels.S02E07.HDTV.x264-UAV&amp;tr=udp%3A%2F%2Ftracker.leechers-paradise.org%3A6969&amp;tr=udp%3A%2F%2Fzer0day.ch%3A1337&amp;tr=udp%3A%2F%2Fopen.demonii.com%3A1337&amp;tr=udp%3A%2F%2Ftracker.coppersurfer.tk%3A6969&amp;tr=udp%3A%2F%2Fexodus.desync.com%3A6969","seeders":4,"leechers":1,"uploader":"TheRival","files":4,"time":1448527330,"description":"Video\r\nID                                       : 1\r\nFormat                                   : AVC\r\nFormat/Info                              : Advanced Video Codec\r\nFormat profile                           :   \r\nFormat settings, CABAC                   : Yes\r\nFormat settings, ReFrames                : 5 frames\r\nCodec ID                                 : avc1\r\nCodec ID/Info                            : Advanced Video Coding\r\nDuration                                 : 22mn 3s\r\nBit rate                                 : 903 Kbps\r\nMaximum bit rate                         : 5 589 Kbps\r\nWidth                                    : 720 pixels\r\nHeight                                   : 404 pixels\r\nDisplay aspect ratio                     : 16:9\r\nFrame rate mode                          : Constant\r\nFrame rate                               : 23.976 fps\r\nColor space                              : YUV\r\nChroma subsampling                       : 4:2:0\r\nBit depth                                : 8 bits\r\nScan type                                : Progressive\r\nBits/(Pixel*Frame)                       : 0.129\r\nStream size                              : 142 MiB (86%)\r\nWriting library                          : x264 core 148 r2638 7599210\r\nEncoding settings                        : cabac=1 / ref=5 / deblock=1:0:0 / analyse=0x3:0x113 / me=umh / subme=8 / psy=1 / psy_rd=1.00:0.00 / mixed_ref=1 / me_range=16 / chroma_me=1 / trellis=1 / 8x8dct=1 / cqm=0 / deadzone=21,11 / fast_pskip=1 / chroma_qp_offset=-2 / threads=12 / lookahead_threads=2 / sliced_threads=0 / nr=0 / decimate=1 / interlaced=0 / bluray_compat=0 / constrained_intra=0 / bframes=3 / b_pyramid=2 / b_adapt=2 / b_bias=0 / direct=3 / weightb=1 / open_gop=0 / weightp=2 / keyint=250 / keyint_min=23 / scenecut=40 / intra_refresh=0 / rc_lookahead=50 / rc=crf / mbtree=1 / crf=19.0 / qcomp=0.60 / qpmin=0 / qpmax=69 / qpstep=4 / ip_ratio=1.40 / aq=1:1.00\r\nEncoded date                             : UTC 2015-11-26 03:59:43\r\nTagged date                              : UTC 2015-11-26 04:31:51\r\nColor range                              : Limited\r\nMatrix coefficients                      : BT.709\r\n\r\nAudio\r\nID                                       : 2\r\nFormat                                   : AAC\r\nFormat/Info                              : Advanced Audio Codec\r\nFormat profile                           : LC\r\nCodec ID                                 : 40\r\nDuration                                 : 22mn 3s\r\nBit rate mode                            : Variable\r\nBit rate                                 : 144 Kbps\r\nMaximum bit rate                         : 174 Kbps\r\nChannel(s)                               : 2 channels\r\nChannel positions                        : Front: L R\r\nSampling rate                            : 48.0 KHz\r\nCompression mode                         : Lossy\r\nStream size                              : 22.8 MiB (14%)\r\nEncoded date                             : UTC 2015-11-26 04:31:50\r\nTagged date                              : UTC 2015-11-26 04:31:51\r\n\r\nText\r\nID                                       : 3\r\nFormat                                   : Timed Text\r\nCodec ID                                 : tx3g\r\nDuration                                 : 21mn 18s\r\nBit rate mode                            : Variable\r\nBit rate                                 : 124 bps\r\nStream size                              : 19.3 KiB (0%)\r\nEncoded date                             : UTC 2015-11-26 04:31:51\r\nTagged date                              : UTC 2015-11-26 04:31:51","torrent":{"xt":"urn:btih:db21c92f9ed609bc3c5403477a014e9bd8969ed8","amp;dn":"Star.Wars.Rebels.S02E07.HDTV.x264-UAV","amp;tr":["udp%3A%2F%2Ftracker.leechers-paradise.org%3A6969","udp%3A%2F%2Fzer0day.ch%3A1337","udp%3A%2F%2Fopen.demonii.com%3A1337","udp%3A%2F%2Ftracker.coppersurfer.tk%3A6969","udp%3A%2F%2Fexodus.desync.com%3A6969"],"infoHash":"db21c92f9ed609bc3c5403477a014e9bd8969ed8","infoHashBuffer":{"type":"Buffer","data":[219,33,201,47,158,214,9,188,60,84,3,71,122,1,78,155,216,150,158,216]},"announce":[],"urlList":[]}}